# AST/ASF file generated using VICON BodyLanguage
# -----------------------------------------------
:version 1.10
:name VICON
:units
  mass 1.0
  length 0.45
  angle deg
:documentation
   .ast/.asf automatically generated from VICON data using
   VICON BodyBuilder and BodyLanguage model FoxedUp or BRILLIANT.MOD
:root
   order TX TY TZ RX RY RZ
   axis XYZ
   position 0 0 0  
   orientation 0 0 0 
:bonedata
  begin
     id 1 
     name lhipjoint
     direction 0.627457 -0.725269 0.283342 
     length 2.53237 
     axis 0 0 0  XYZ
  end
  begin
     id 2 
     name lfemur
     direction 0.34202 -0.939693 0  
     length 7.32496  
     axis 0 0 20  XYZ
    dof rx ry rz
    limits (-160.0 20.0)
           (-70.0 70.0)
           (-60.0 70.0)
  end
  begin
     id 3 
     name ltibia
     direction 0.34202 -0.939693 0   
     length 7.69674   
     axis 0 0 20   XYZ
    dof rx
    limits (-10.0 170.0)
  end
  begin
     id 4 
     name lfoot
     direction 0.127289 -0.349722 0.928166   
     length 1.8612   
     axis -90 7.62852e-016 20   XYZ
    dof rx rz
    limits (-45.0 90.0)
           (-70.0 20.0)
  end
  begin
     id 5 
     name ltoes
     direction 1.53561e-011 -4.21864e-011 1   
     length 0.925608   
     axis -90 7.62852e-016 20   XYZ
    dof rx
    limits (-90.0 20.0)
  end
  begin
     id 6 
     name rhipjoint
     direction -0.609094 -0.738725 0.288599   
     length 2.48624  
     axis 0 0 0  XYZ 
  end
  begin
     id 7 
     name rfemur
     direction -0.34202 -0.939693 0   
     length 7.44259   
     axis 0 0 -20   XYZ
    dof rx ry rz
    limits (-160.0 20.0)
           (-70.0 70.0)
           (-70.0 60.0)
  end
  begin
     id 8 
     name rtibia
     direction -0.34202 -0.939693 0   
     length 7.7781   
     axis 0 0 -20   XYZ
    dof rx
    limits (-10.0 170.0)
 end
 begin
     id 9 
     name rfoot
     direction -0.107015 -0.294021 0.949789   
     length 2.14741  
     axis -90 -7.62852e-016 -20   XYZ
    dof rx rz
    limits (-45.0 90.0)
           (-20.0 70.0)
  end
  begin
     id 10 
     name rtoes
     direction -1.53497e-011 -4.21924e-011 1   
     length 1.0706   
     axis -90 -7.62852e-016 -20   XYZ
    dof rx
    limits (-90.0 20.0)
  end
  begin
     id 11 
     name lowerback
     direction -0.0142066 0.998112 -0.0597545   
     length 1.86627   
     axis 0 0 0   XYZ
    dof rx ry rz
    limits (-20.0 45.0)
           (-30.0 30.0)
           (-30.0 30.0)
  end
  begin
     id 12 
     name upperback
     direction 0.00547294 0.999744 0.0219437   
     length 1.86272   
     axis 0 0 0   XYZ
    dof rx ry rz
    limits (-20.0 45.0)
           (-30.0 30.0)
           (-30.0 30.0)
  end
  begin
     id 13 
     name thorax
     direction 0.0116162 0.998704 0.0495538   
     length 1.8703   
     axis 0 0 0   XYZ
    dof rx ry rz
    limits (-20.0 45.0)
           (-30.0 30.0)
           (-30.0 30.0)
  end
  begin
     id 14 
     name lowerneck
     direction -0.0106574 0.998739 0.0490586   
     length 1.8074   
     axis 0 0 0   XYZ
    dof rx ry rz
    limits (-20.0 45.0)
           (-30.0 30.0)
           (-30.0 30.0)
  end
  begin
     id 15 
     name upperneck
     direction 0.030527 0.976587 -0.212944   
     length 1.80681   
     axis 0 0 0   XYZ
    dof rx ry rz
    limits (-20.0 45.0)
           (-30.0 30.0)
           (-30.0 30.0)
  end
  begin
     id 16
     name head
     direction 0.00869225 0.997035 -0.0764531  
     length 1.8313  
     axis 0 0 0   XYZ
    dof rx ry rz
    limits (-20.0 45.0)
           (-30.0 30.0)
           (-30.0 30.0)
  end
  begin
     id 17 
     name lclavicle
     direction 0.915958 0.399447 0.0382386  
     length 3.78965  
     axis 0 0 0   XYZ
    dof ry rz
    limits (-20.0 10.0)
           (0.0 20.0)
  end
  begin
     id 18 
     name lhumerus
     direction 1 -4.48967e-011 3.19303e-027   
     length 4.78095   
     axis -180 -30 -90   XYZ
    dof rx ry rz
    limits (-60.0 90.0)
           (-90.0 90.0)
           (-90.0 90.0)
  end
  begin
     id 19
     name lradius
     direction 1 -4.48967e-011 -3.77974e-027   
     length 3.58615   
     axis -180 -30 -90   XYZ
    dof rx
    limits (-10.0 170.0)
  end
  begin
     id 20
     name lwrist
     direction 1 -4.48927e-011 1.2807e-027   
     length 1.79307   
     axis 1.91374e-015 90 90   XYZ
    dof ry
    limits (-180.0 0.0)
 end
  begin
     id 21 
     name lhand
     direction 1 -4.49036e-011 2.5614e-027   
     length 0.659812   
     axis -1.63439e-015 90 90   XYZ
    dof rx rz
    limits (-90.0 90.0)
           (-45.0 45.0)
  end
  begin
     id 22 
     name lfingers
     direction 1 -4.49052e-011 5.1228e-027   
     length 0.531957   
     axis -3.26879e-015 90 90   XYZ
    dof rx
    limits (0.0 90.0)
  end
  begin
     id 23
     name lthumb
     direction 0.707107 -6.35012e-011 0.707107   
     length 0.763787   
     axis -90 45 2.85299e-015   XYZ
    dof rx rz
    limits (-45.0 45.0)
           (-45.0 45.0)
  end
  begin
     id 24 
     name rclavicle
     direction -0.895351 0.435135 0.0948887   
     length 3.70497  
     axis 0 0 0   XYZ 
    dof ry rz
    limits (-10.0 20.0)
           (-20.0 0.0)
  end
  begin
     id 25 
     name rhumerus
     direction -1 -4.48971e-011 2.38946e-027  
     length 4.48913   
     axis -180 30 90   XYZ
    dof rx ry rz
    limits (-90.0 60.0)
           (-90.0 90.0)
           (-90.0 90.0)
  end
  begin
     id 26 
     name rradius
     direction -1 -4.4895e-011 4.38668e-027   
     length 3.7051   
     axis -180 30 90   XYZ
    dof rx
    limits (-10.0 170.0)
  end
  begin
     id 27 
     name rwrist
     direction -1 -4.49007e-011 1.2807e-027   
     length 1.85255   
     axis 1.91374e-015 -90 -90   XYZ
    dof ry
    limits (-180.0 0.0)
  end
  begin
     id 28
     name rhand
     direction -1 -4.48851e-011 2.5614e-027   
     length 0.449136   
     axis -1.63439e-015 -90 -90   XYZ
    dof rx rz
    limits (-90.0 90.0)
           (-45.0 45.0)
  end
  begin
     id 29
     name rfingers
     direction -1 -4.49128e-011 5.1228e-027   
     length 0.362105   
     axis -3.26879e-015 -90 -90   XYZ
    dof rx
    limits (0.0 90.0)
  end
  begin
     id 30
     name rthumb
     direction -0.707107 -6.34851e-011 0.707107   
     length 0.519912   
     axis -90 -45 -2.85299e-015   XYZ
    dof rx rz
    limits (-45.0 45.0)
           (-45.0 45.0)
  end
:hierarchy
  begin
    root lhipjoint rhipjoint lowerback
    lhipjoint lfemur
    lfemur ltibia
    ltibia lfoot
    lfoot ltoes
    rhipjoint rfemur
    rfemur rtibia
    rtibia rfoot
    rfoot rtoes
    lowerback upperback
    upperback thorax
    thorax lowerneck lclavicle rclavicle
    lowerneck upperneck
    upperneck head
    lclavicle lhumerus
    lhumerus lradius
    lradius lwrist
    lwrist lhand lthumb
    lhand lfingers
    rclavicle rhumerus
    rhumerus rradius
    rradius rwrist
    rwrist rhand rthumb
    rhand rfingers
  end

#!OML:ASF I:\Actors\actors\Patient Classification 2\Patient 1\Session 1\actor1.ASF
:FULLY-SPECIFIED
:DEGREES
26
root -0.681618 18.7012 5.72208 3.46669 -3.98928 -2.7589
lowerback -2.32536 1.16031 0.869947
upperback -2.12187 1.53447 0.240511
thorax -0.854002 0.758435 -0.217348
lowerneck -10.5809 -1.788 -0.431804
upperneck 23.5194 -3.28342 3.48081
head 9.18895 -1.20993 0.902586
rclavicle -1.1865e-014 9.74045e-015
rhumerus -45.634 3.01129 -91.4966
rradius 39.5629
rwrist 16.9428
rhand -7.61353 -32.8348
rfingers 7.12502
rthumb 18.2807 -61.9958
lclavicle -1.1865e-014 9.74045e-015
lhumerus -41.736 -5.8904 94.0139
lradius 36.8069
lwrist -4.94162
lhand -6.89341 -23.9212
lfingers 7.12502
lthumb 18.9733 5.1734
rfemur 0 0 0
rtibia 0
rfoot 0 0
rtoes 0
lfemur -4.89537 -8.29411 -11.7573
ltibia 21.4203
lfoot -27.0694 17.784
ltoes -53.3001
27
root -0.680803 18.7012 5.72094 3.46029 -3.96599 -2.7334
lowerback -2.34478 1.14913 0.850657
upperback -2.1176 1.51954 0.23
thorax -0.839115 0.751194 -0.217061
lowerneck -10.5406 -1.77724 -0.420154
upperneck 23.5143 -3.27068 3.48304
head 9.17911 -1.20329 0.903115
rclavicle 2.06239e-015 -6.75868e-015
rhumerus -45.6557 3.05931 -91.5276
rradius 39.5677
rwrist 16.9419
rhand -7.6212 -32.7705
rfingers 7.12502
rthumb 18.2733 -61.9322
lclavicle 2.06239e-015 -6.75868e-015
lhumerus -41.7278 -5.87936 93.9939
lradius 36.7817
lwrist -4.95371
lhand -6.86555 -23.889
lfingers 7.12502
lthumb 19.0001 5.20302
rfemur 0 0 0
rtibia 0
rfoot 0 0
rtoes 0
lfemur -4.88827 -8.42638 -11.8017
ltibia 21.405
lfoot -27.095 17.9216
ltoes -53.3478
28
root -0.681452 18.7014 5.7197 3.46808 -3.95266 -2.6868
lowerback -2.38637 1.15235 0.799112
upperback -2.11246 1.52402 0.210076
thorax -0.811308 0.754026 -0.207545
lowerneck -10.5196 -1.77787 -0.375838
upperneck 23.5149 -3.27036 3.44206
head 9.17391 -1.20382 0.881807
rclavicle -1.39646e-014 8.74653e-015
rhumerus -45.6736 3.06196 -91.5386
rradius 39.6073
rwrist 16.9113
rhand -7.50003 -32.7887
rfingers 7.12502
rthumb 18.3899 -61.9394
lclavicle -1.39646e-014 8.74653e-015
lhumerus -41.7153 -5.89996 93.9855
lradius 36.7578
lwrist -4.94209
lhand -6.81593 -23.874
lfingers 7.12502
lthumb 19.0478 5.21332
rfemur 0 0 0
rtibia 0
rfoot 0 0
rtoes 0
lfemur -4.89488 -8.39597 -11.8446
ltibia 21.3803
lfoot -27.0425 17.8991
ltoes -53.3369
29
root -0.682434 18.7007 5.71757 3.4283 -3.94486 -2.64346
lowerback -2.3473 1.14713 0.738297
upperback -2.10303 1.51836 0.207098
thorax -0.825007 0.751874 -0.17741
lowerneck -10.559 -1.76894 -0.405535
upperneck 23.5783 -3.26316 3.47669
head 9.2044 -1.19793 0.899351
rclavicle -1.49585e-014 -8.34896e-015
rhumerus -45.684 3.06459 -91.5258
rradius 39.64
rwrist 16.8905
rhand -7.30723 -32.812
rfingers 7.12502
rthumb 18.5753 -61.9451
lclavicle -1.49585e-014 -8.34896e-015
lhumerus -41.7087 -5.86607 93.9751
lradius 36.7474
lwrist -4.94781
lhand -6.76642 -23.8915
lfingers 7.12502
lthumb 19.0955 5.19107
rfemur 0 0 0
rtibia 0
rfoot 0 0
rtoes 0
lfemur -4.8529 -8.22152 -11.871
ltibia 21.3493
lfoot -26.9404 17.7176
ltoes -53.2619
30
root -0.682919 18.6988 5.71495 3.38222 -3.94792 -2.62963
lowerback -2.28315 1.14174 0.714005
upperback -2.09217 1.51214 0.208113
thorax -0.850456 0.749003 -0.164158
lowerneck -10.6321 -1.76258 -0.440953
upperneck 23.6617 -3.26172 3.51993
head 9.24865 -1.19364 0.91999
rclavicle 2.13569e-014 -1.11319e-014
rhumerus -45.6891 3.08168 -91.5317
rradius 39.6563
rwrist 16.8495
rhand -7.27211 -32.739
rfingers 7.12502
rthumb 18.6091 -61.8689
lclavicle 2.13569e-014 -1.11319e-014
lhumerus -41.706 -5.84252 93.9569
lradius 36.7667
lwrist -4.9605
lhand -6.73691 -23.8639
lfingers 7.12502
lthumb 19.1238 5.21591
rfemur 0 0 0
rtibia 0
rfoot 0 0
rtoes 0
lfemur -4.82655 -7.98502 -11.8808
ltibia 21.3135
lfoot -26.6504 17.7929
ltoes -53.4828
31
root -0.682905 18.6961 5.71255 3.35864 -3.95705 -2.63399
lowerback -2.25355 1.14288 0.718207
upperback -2.08212 1.51383 0.205425
thorax -0.85652 0.749781 -0.169754
lowerneck -10.6587 -1.76216 -0.422511
upperneck 23.684 -3.2577 3.48581
head 9.26044 -1.19313 0.905454
rclavicle 4.06266e-015 -1.03368e-014
rhumerus -45.6833 3.12917 -91.5567
rradius 39.6608
rwrist 16.7476
rhand -7.44782 -32.727
rfingers 7.12502
rthumb 18.4401 -61.873
lclavicle 4.06266e-015 -1.03368e-014
lhumerus -41.6952 -5.83045 93.9356
lradius 36.7798
lwrist -4.9931
lhand -6.7278 -23.8243
lfingers 7.12502
lthumb 19.1326 5.25459
rfemur 0 0 0
rtibia 0
rfoot 0 0
rtoes 0
lfemur -4.85121 -7.6863 -11.8858
ltibia 21.2811
lfoot -26.1175 18.1566
ltoes -53.7615
